<svg width="678" height="563" viewBox="0 0 678 563" fill="none" xmlns="http://www.w3.org/2000/svg">
<path d="M143.982 451.352H161.006L160.046 459H132.046V451.864L148.91 432.632H133.454V425.016H160.686V432.12L143.982 451.352ZM183.925 452.856C185.61 452.856 186.965 452.589 187.989 452.056C189.034 451.523 189.557 450.723 189.557 449.656C189.557 448.931 189.354 448.323 188.949 447.832C188.543 447.341 187.765 446.872 186.613 446.424C185.461 445.976 183.754 445.443 181.493 444.824C178.378 443.992 175.839 442.797 173.877 441.24C171.935 439.683 170.965 437.4 170.965 434.392C170.965 431.363 172.223 428.856 174.741 426.872C177.279 424.888 180.938 423.896 185.717 423.896C188.746 423.896 191.381 424.291 193.621 425.08C195.882 425.848 197.834 426.829 199.477 428.024L195.445 433.976C194.037 433.101 192.522 432.408 190.901 431.896C189.279 431.363 187.647 431.096 186.005 431.096C182.762 431.096 181.141 431.971 181.141 433.72C181.141 434.296 181.343 434.797 181.749 435.224C182.175 435.629 182.965 436.056 184.117 436.504C185.269 436.931 186.954 437.464 189.173 438.104C191.37 438.723 193.279 439.437 194.901 440.248C196.543 441.059 197.813 442.147 198.708 443.512C199.605 444.856 200.053 446.637 200.053 448.856C200.053 451.331 199.317 453.411 197.845 455.096C196.373 456.76 194.421 458.008 191.989 458.84C189.557 459.672 186.89 460.088 183.989 460.088C180.703 460.088 177.802 459.619 175.285 458.68C172.767 457.741 170.623 456.504 168.853 454.968L173.941 449.272C175.263 450.296 176.757 451.149 178.421 451.832C180.106 452.515 181.941 452.856 183.925 452.856ZM218.78 410.52V428.376C221.617 425.389 224.945 423.896 228.764 423.896C231.793 423.896 234.108 424.781 235.708 426.552C237.308 428.323 238.108 430.819 238.108 434.04V459H227.996V436.856C227.996 434.808 227.761 433.379 227.292 432.568C226.844 431.757 225.99 431.352 224.732 431.352C223.665 431.352 222.641 431.725 221.66 432.472C220.7 433.197 219.74 434.2 218.78 435.48V459H208.668V411.512L218.78 410.52ZM247.907 445.464V437.592H275.618V445.464H247.907ZM314.026 449.208C314.026 450.488 314.196 451.416 314.538 451.992C314.9 452.568 315.476 453.005 316.266 453.304L314.186 459.96C312.18 459.768 310.484 459.331 309.098 458.648C307.732 457.944 306.655 456.888 305.866 455.48C304.564 457.037 302.9 458.2 300.874 458.968C298.847 459.715 296.778 460.088 294.666 460.088C291.167 460.088 288.372 459.096 286.282 457.112C284.212 455.107 283.178 452.536 283.178 449.4C283.178 445.709 284.618 442.861 287.498 440.856C290.399 438.851 294.474 437.848 299.722 437.848H304.298V436.568C304.298 433.091 302.058 431.352 297.578 431.352C296.49 431.352 295.092 431.512 293.386 431.832C291.679 432.131 289.972 432.568 288.266 433.144L285.93 426.424C288.127 425.592 290.41 424.963 292.778 424.536C295.167 424.109 297.3 423.896 299.178 423.896C304.234 423.896 307.967 424.931 310.378 427C312.81 429.048 314.026 432.013 314.026 435.896V449.208ZM298.154 452.856C299.242 452.856 300.383 452.536 301.578 451.896C302.772 451.235 303.679 450.307 304.298 449.112V443.608H301.802C298.986 443.608 296.916 444.045 295.594 444.92C294.271 445.773 293.61 447.032 293.61 448.696C293.61 449.997 294.004 451.021 294.794 451.768C295.604 452.493 296.724 452.856 298.154 452.856ZM324.113 459V452.216H328.593V431.736H324.113V425.016H336.305L338.161 432.664C339.377 429.741 340.923 427.565 342.801 426.136C344.699 424.707 347.014 423.992 349.745 423.992C350.897 423.992 351.921 424.088 352.817 424.28C353.713 424.451 354.555 424.696 355.345 425.016L353.457 439.224H347.121V432.952C345.201 433.293 343.515 434.339 342.065 436.088C340.614 437.816 339.494 439.949 338.705 442.488V452.216H345.425V459H324.113ZM392.76 457.016C391.437 457.869 389.837 458.595 387.96 459.192C386.082 459.789 383.97 460.088 381.624 460.088C377.186 460.088 373.89 458.957 371.736 456.696C369.581 454.413 368.504 451.32 368.504 447.416V431.992H361.368V425.016H368.504V417.656L378.616 416.44V425.016H389.56L388.568 431.992H378.616V447.416C378.616 449.101 379 450.307 379.768 451.032C380.536 451.757 381.762 452.12 383.448 452.12C384.642 452.12 385.73 451.981 386.712 451.704C387.714 451.405 388.61 451.032 389.4 450.584L392.76 457.016ZM415.199 407.224C416.948 407.224 418.377 407.768 419.487 408.856C420.596 409.944 421.151 411.299 421.151 412.92C421.151 414.541 420.596 415.907 419.487 417.016C418.377 418.104 416.948 418.648 415.199 418.648C413.428 418.648 411.977 418.104 410.847 417.016C409.737 415.907 409.183 414.541 409.183 412.92C409.183 411.299 409.737 409.944 410.847 408.856C411.977 407.768 413.428 407.224 415.199 407.224ZM421.311 425.016V452.088H429.951V459H401.567V452.088H411.199V431.928H401.887V425.016H421.311ZM452.55 452.856C454.235 452.856 455.59 452.589 456.614 452.056C457.659 451.523 458.182 450.723 458.182 449.656C458.182 448.931 457.979 448.323 457.574 447.832C457.168 447.341 456.39 446.872 455.238 446.424C454.086 445.976 452.379 445.443 450.118 444.824C447.003 443.992 444.464 442.797 442.502 441.24C440.56 439.683 439.59 437.4 439.59 434.392C439.59 431.363 440.848 428.856 443.366 426.872C445.904 424.888 449.563 423.896 454.342 423.896C457.371 423.896 460.006 424.291 462.246 425.08C464.507 425.848 466.459 426.829 468.102 428.024L464.07 433.976C462.662 433.101 461.147 432.408 459.526 431.896C457.904 431.363 456.272 431.096 454.63 431.096C451.387 431.096 449.766 431.971 449.766 433.72C449.766 434.296 449.968 434.797 450.374 435.224C450.8 435.629 451.59 436.056 452.742 436.504C453.894 436.931 455.579 437.464 457.798 438.104C459.995 438.723 461.904 439.437 463.526 440.248C465.168 441.059 466.438 442.147 467.333 443.512C468.23 444.856 468.678 446.637 468.678 448.856C468.678 451.331 467.942 453.411 466.47 455.096C464.998 456.76 463.046 458.008 460.614 458.84C458.182 459.672 455.515 460.088 452.614 460.088C449.328 460.088 446.427 459.619 443.91 458.68C441.392 457.741 439.248 456.504 437.478 454.968L442.566 449.272C443.888 450.296 445.382 451.149 447.046 451.832C448.731 452.515 450.566 452.856 452.55 452.856ZM505.901 449.208C505.901 450.488 506.071 451.416 506.413 451.992C506.775 452.568 507.351 453.005 508.141 453.304L506.061 459.96C504.055 459.768 502.359 459.331 500.973 458.648C499.607 457.944 498.53 456.888 497.741 455.48C496.439 457.037 494.775 458.2 492.749 458.968C490.722 459.715 488.653 460.088 486.541 460.088C483.042 460.088 480.247 459.096 478.157 457.112C476.087 455.107 475.053 452.536 475.053 449.4C475.053 445.709 476.493 442.861 479.373 440.856C482.274 438.851 486.349 437.848 491.597 437.848H496.173V436.568C496.173 433.091 493.933 431.352 489.453 431.352C488.365 431.352 486.967 431.512 485.261 431.832C483.554 432.131 481.847 432.568 480.141 433.144L477.805 426.424C480.002 425.592 482.285 424.963 484.653 424.536C487.042 424.109 489.175 423.896 491.053 423.896C496.109 423.896 499.842 424.931 502.253 427C504.685 429.048 505.901 432.013 505.901 435.896V449.208ZM490.029 452.856C491.117 452.856 492.258 452.536 493.453 451.896C494.647 451.235 495.554 450.307 496.173 449.112V443.608H493.677C490.861 443.608 488.791 444.045 487.469 444.92C486.146 445.773 485.485 447.032 485.485 448.696C485.485 449.997 485.879 451.021 486.669 451.768C487.479 452.493 488.599 452.856 490.029 452.856ZM515.668 459V425.016H524.5L525.204 428.952C526.718 427.245 528.318 425.976 530.003 425.144C531.689 424.312 533.609 423.896 535.764 423.896C538.665 423.896 540.948 424.781 542.612 426.552C544.276 428.323 545.108 430.819 545.108 434.04V459H534.996V436.952C534.996 434.861 534.761 433.411 534.292 432.6C533.844 431.768 532.99 431.352 531.732 431.352C530.665 431.352 529.641 431.693 528.66 432.376C527.7 433.059 526.74 434.008 525.78 435.224V459H515.668Z" fill="#1A202C"/>
<path d="M57.5166 518.768V521H40.3446V495.44H57.1926V497.672H42.8646V506.888H55.3566V509.012H42.8646V518.768H57.5166ZM77.3352 521H74.8872V510.524C74.8872 508.292 74.5512 506.672 73.8792 505.664C73.2312 504.656 72.2232 504.152 70.8552 504.152C70.1352 504.152 69.4152 504.284 68.6952 504.548C67.9752 504.812 67.3032 505.184 66.6792 505.664C66.0792 506.144 65.5392 506.72 65.0592 507.392C64.5792 508.04 64.2312 508.748 64.0152 509.516V521H61.5672V502.244H63.7992V506.492C64.5672 505.124 65.6592 504.02 67.0752 503.18C68.5152 502.34 70.0752 501.92 71.7552 501.92C72.7872 501.92 73.6632 502.112 74.3832 502.496C75.1032 502.88 75.6792 503.42 76.1112 504.116C76.5432 504.812 76.8552 505.664 77.0472 506.672C77.2392 507.68 77.3352 508.796 77.3352 510.02V521ZM98.3235 521H95.8755V510.524C95.8755 508.388 95.5035 506.792 94.7595 505.736C94.0395 504.68 92.9715 504.152 91.5555 504.152C90.8595 504.152 90.1635 504.296 89.4675 504.584C88.7955 504.848 88.1595 505.22 87.5595 505.7C86.9595 506.18 86.4315 506.744 85.9755 507.392C85.5435 508.04 85.2195 508.748 85.0035 509.516V521H82.5555V494.72H85.0035V506.492C85.7475 505.076 86.7795 503.96 88.0995 503.144C89.4195 502.328 90.8475 501.92 92.3835 501.92C93.4635 501.92 94.3755 502.124 95.1195 502.532C95.8635 502.916 96.4755 503.468 96.9555 504.188C97.4355 504.884 97.7835 505.736 97.9995 506.744C98.2155 507.728 98.3235 508.82 98.3235 510.02V521ZM108.26 521.36C107.372 521.36 106.544 521.216 105.776 520.928C105.032 520.616 104.372 520.196 103.796 519.668C103.244 519.14 102.812 518.528 102.5 517.832C102.188 517.112 102.032 516.344 102.032 515.528C102.032 514.712 102.224 513.956 102.608 513.26C102.992 512.564 103.532 511.964 104.228 511.46C104.924 510.956 105.752 510.572 106.712 510.308C107.672 510.02 108.728 509.876 109.88 509.876C110.84 509.876 111.812 509.96 112.796 510.128C113.78 510.296 114.656 510.536 115.424 510.848V509.156C115.424 507.5 114.956 506.192 114.02 505.232C113.084 504.248 111.788 503.756 110.132 503.756C109.172 503.756 108.188 503.948 107.18 504.332C106.172 504.716 105.152 505.268 104.12 505.988L103.256 504.368C105.68 502.736 108.032 501.92 110.312 501.92C112.664 501.92 114.512 502.58 115.856 503.9C117.2 505.22 117.872 507.044 117.872 509.372V517.832C117.872 518.504 118.172 518.84 118.772 518.84V521C118.364 521.072 118.052 521.108 117.836 521.108C117.212 521.108 116.72 520.952 116.36 520.64C116.024 520.328 115.844 519.896 115.82 519.344L115.748 517.868C114.884 518.996 113.792 519.86 112.472 520.46C111.176 521.06 109.772 521.36 108.26 521.36ZM108.836 519.488C110.108 519.488 111.272 519.248 112.328 518.768C113.408 518.288 114.224 517.652 114.776 516.86C114.992 516.644 115.148 516.416 115.244 516.176C115.364 515.912 115.424 515.672 115.424 515.456V512.396C114.608 512.084 113.756 511.844 112.868 511.676C112.004 511.508 111.116 511.424 110.204 511.424C108.476 511.424 107.072 511.784 105.992 512.504C104.912 513.224 104.372 514.172 104.372 515.348C104.372 515.924 104.48 516.464 104.696 516.968C104.936 517.472 105.248 517.916 105.632 518.3C106.04 518.66 106.52 518.948 107.072 519.164C107.624 519.38 108.212 519.488 108.836 519.488ZM138.929 521H136.481V510.524C136.481 508.292 136.145 506.672 135.473 505.664C134.825 504.656 133.817 504.152 132.449 504.152C131.729 504.152 131.009 504.284 130.289 504.548C129.569 504.812 128.897 505.184 128.273 505.664C127.673 506.144 127.133 506.72 126.653 507.392C126.173 508.04 125.825 508.748 125.609 509.516V521H123.161V502.244H125.393V506.492C126.161 505.124 127.253 504.02 128.669 503.18C130.109 502.34 131.669 501.92 133.349 501.92C134.381 501.92 135.257 502.112 135.977 502.496C136.697 502.88 137.273 503.42 137.705 504.116C138.137 504.812 138.449 505.664 138.641 506.672C138.833 507.68 138.929 508.796 138.929 510.02V521ZM142.853 511.568C142.853 510.248 143.081 509 143.537 507.824C143.993 506.648 144.629 505.628 145.445 504.764C146.285 503.876 147.281 503.18 148.433 502.676C149.585 502.172 150.857 501.92 152.249 501.92C154.025 501.92 155.573 502.328 156.893 503.144C158.213 503.936 159.209 505.016 159.881 506.384L157.505 507.14C156.977 506.18 156.233 505.436 155.273 504.908C154.337 504.356 153.293 504.08 152.141 504.08C151.181 504.08 150.281 504.272 149.441 504.656C148.625 505.04 147.905 505.568 147.281 506.24C146.681 506.888 146.201 507.668 145.841 508.58C145.505 509.492 145.337 510.488 145.337 511.568C145.337 512.624 145.517 513.62 145.877 514.556C146.237 515.492 146.729 516.308 147.353 517.004C147.977 517.676 148.697 518.216 149.513 518.624C150.353 519.008 151.241 519.2 152.177 519.2C152.777 519.2 153.365 519.116 153.941 518.948C154.541 518.78 155.093 518.552 155.597 518.264C156.101 517.952 156.533 517.604 156.893 517.22C157.253 516.836 157.505 516.428 157.649 515.996L160.061 516.716C159.797 517.388 159.413 518.012 158.909 518.588C158.405 519.14 157.805 519.632 157.109 520.064C156.437 520.472 155.681 520.784 154.841 521C154.025 521.24 153.173 521.36 152.285 521.36C150.917 521.36 149.657 521.108 148.505 520.604C147.353 520.076 146.357 519.368 145.517 518.48C144.677 517.568 144.017 516.524 143.537 515.348C143.081 514.172 142.853 512.912 142.853 511.568ZM171.831 521.36C170.463 521.36 169.203 521.108 168.051 520.604C166.923 520.076 165.939 519.368 165.099 518.48C164.259 517.568 163.599 516.524 163.119 515.348C162.663 514.172 162.435 512.912 162.435 511.568C162.435 510.248 162.663 509.012 163.119 507.86C163.599 506.684 164.247 505.664 165.063 504.8C165.903 503.912 166.899 503.216 168.051 502.712C169.203 502.184 170.451 501.92 171.795 501.92C173.163 501.92 174.411 502.184 175.539 502.712C176.691 503.216 177.675 503.912 178.491 504.8C179.307 505.688 179.943 506.708 180.399 507.86C180.855 509.012 181.083 510.236 181.083 511.532C181.083 511.724 181.083 511.916 181.083 512.108C181.083 512.3 181.071 512.432 181.047 512.504H164.991C165.063 513.512 165.291 514.448 165.675 515.312C166.083 516.152 166.599 516.884 167.223 517.508C167.847 518.132 168.555 518.624 169.347 518.984C170.163 519.32 171.027 519.488 171.939 519.488C172.539 519.488 173.139 519.404 173.739 519.236C174.339 519.068 174.891 518.84 175.395 518.552C175.899 518.264 176.355 517.916 176.763 517.508C177.171 517.076 177.483 516.608 177.699 516.104L179.823 516.68C179.535 517.376 179.127 518.012 178.599 518.588C178.071 519.14 177.459 519.632 176.763 520.064C176.067 520.472 175.299 520.784 174.459 521C173.619 521.24 172.743 521.36 171.831 521.36ZM178.743 510.632C178.671 509.624 178.431 508.712 178.023 507.896C177.639 507.056 177.135 506.336 176.511 505.736C175.911 505.136 175.203 504.668 174.387 504.332C173.595 503.996 172.743 503.828 171.831 503.828C170.919 503.828 170.055 503.996 169.239 504.332C168.423 504.668 167.703 505.136 167.079 505.736C166.479 506.336 165.987 507.056 165.603 507.896C165.243 508.736 165.027 509.648 164.955 510.632H178.743ZM192.564 521.36C191.268 521.36 190.068 521.096 188.964 520.568C187.86 520.016 186.912 519.296 186.12 518.408C185.328 517.52 184.704 516.5 184.248 515.348C183.816 514.172 183.6 512.948 183.6 511.676C183.6 510.356 183.816 509.108 184.248 507.932C184.68 506.732 185.268 505.688 186.012 504.8C186.78 503.912 187.68 503.216 188.712 502.712C189.768 502.184 190.92 501.92 192.168 501.92C193.752 501.92 195.156 502.34 196.38 503.18C197.604 503.996 198.564 504.992 199.26 506.168V494.72H201.708V517.832C201.708 518.504 201.996 518.84 202.572 518.84V521C202.212 521.072 201.924 521.108 201.708 521.108C201.132 521.108 200.628 520.928 200.196 520.568C199.764 520.184 199.548 519.728 199.548 519.2V517.364C198.804 518.588 197.796 519.56 196.524 520.28C195.252 521 193.932 521.36 192.564 521.36ZM193.104 519.2C193.704 519.2 194.34 519.08 195.012 518.84C195.708 518.6 196.356 518.276 196.956 517.868C197.556 517.436 198.06 516.944 198.468 516.392C198.9 515.816 199.164 515.204 199.26 514.556V508.76C199.02 508.112 198.672 507.512 198.216 506.96C197.76 506.384 197.232 505.88 196.632 505.448C196.056 505.016 195.432 504.68 194.76 504.44C194.088 504.2 193.428 504.08 192.78 504.08C191.772 504.08 190.86 504.296 190.044 504.728C189.228 505.16 188.52 505.736 187.92 506.456C187.344 507.152 186.9 507.956 186.588 508.868C186.276 509.78 186.12 510.716 186.12 511.676C186.12 512.684 186.3 513.644 186.66 514.556C187.02 515.468 187.512 516.272 188.136 516.968C188.76 517.64 189.492 518.18 190.332 518.588C191.196 518.996 192.12 519.2 193.104 519.2ZM216.934 521V495.44H219.454V518.768H234.214V521H216.934ZM242.135 521.36C241.247 521.36 240.419 521.216 239.651 520.928C238.907 520.616 238.247 520.196 237.671 519.668C237.119 519.14 236.687 518.528 236.375 517.832C236.063 517.112 235.907 516.344 235.907 515.528C235.907 514.712 236.099 513.956 236.483 513.26C236.867 512.564 237.407 511.964 238.103 511.46C238.799 510.956 239.627 510.572 240.587 510.308C241.547 510.02 242.603 509.876 243.755 509.876C244.715 509.876 245.687 509.96 246.671 510.128C247.655 510.296 248.531 510.536 249.299 510.848V509.156C249.299 507.5 248.831 506.192 247.895 505.232C246.959 504.248 245.663 503.756 244.007 503.756C243.047 503.756 242.063 503.948 241.055 504.332C240.047 504.716 239.027 505.268 237.995 505.988L237.131 504.368C239.555 502.736 241.907 501.92 244.187 501.92C246.539 501.92 248.387 502.58 249.731 503.9C251.075 505.22 251.747 507.044 251.747 509.372V517.832C251.747 518.504 252.047 518.84 252.647 518.84V521C252.239 521.072 251.927 521.108 251.711 521.108C251.087 521.108 250.595 520.952 250.235 520.64C249.899 520.328 249.719 519.896 249.695 519.344L249.623 517.868C248.759 518.996 247.667 519.86 246.347 520.46C245.051 521.06 243.647 521.36 242.135 521.36ZM242.711 519.488C243.983 519.488 245.147 519.248 246.203 518.768C247.283 518.288 248.099 517.652 248.651 516.86C248.867 516.644 249.023 516.416 249.119 516.176C249.239 515.912 249.299 515.672 249.299 515.456V512.396C248.483 512.084 247.631 511.844 246.743 511.676C245.879 511.508 244.991 511.424 244.079 511.424C242.351 511.424 240.947 511.784 239.867 512.504C238.787 513.224 238.247 514.172 238.247 515.348C238.247 515.924 238.355 516.464 238.571 516.968C238.811 517.472 239.123 517.916 239.507 518.3C239.915 518.66 240.395 518.948 240.947 519.164C241.499 519.38 242.087 519.488 242.711 519.488ZM266.396 504.404C264.74 504.452 263.3 504.908 262.076 505.772C260.852 506.636 259.988 507.824 259.484 509.336V521H257.036V502.244H259.34V506.744C260.036 505.304 260.972 504.176 262.148 503.36C263.324 502.544 264.584 502.136 265.928 502.136C266.12 502.136 266.276 502.148 266.396 502.172V504.404ZM274.127 521.36C273.239 521.36 272.411 521.216 271.643 520.928C270.899 520.616 270.239 520.196 269.663 519.668C269.111 519.14 268.679 518.528 268.367 517.832C268.055 517.112 267.899 516.344 267.899 515.528C267.899 514.712 268.091 513.956 268.475 513.26C268.859 512.564 269.399 511.964 270.095 511.46C270.791 510.956 271.619 510.572 272.579 510.308C273.539 510.02 274.595 509.876 275.747 509.876C276.707 509.876 277.679 509.96 278.663 510.128C279.647 510.296 280.523 510.536 281.291 510.848V509.156C281.291 507.5 280.823 506.192 279.887 505.232C278.951 504.248 277.655 503.756 275.999 503.756C275.039 503.756 274.055 503.948 273.047 504.332C272.039 504.716 271.019 505.268 269.987 505.988L269.123 504.368C271.547 502.736 273.899 501.92 276.179 501.92C278.531 501.92 280.379 502.58 281.723 503.9C283.067 505.22 283.739 507.044 283.739 509.372V517.832C283.739 518.504 284.039 518.84 284.639 518.84V521C284.231 521.072 283.919 521.108 283.703 521.108C283.079 521.108 282.587 520.952 282.227 520.64C281.891 520.328 281.711 519.896 281.687 519.344L281.615 517.868C280.751 518.996 279.659 519.86 278.339 520.46C277.043 521.06 275.639 521.36 274.127 521.36ZM274.703 519.488C275.975 519.488 277.139 519.248 278.195 518.768C279.275 518.288 280.091 517.652 280.643 516.86C280.859 516.644 281.015 516.416 281.111 516.176C281.231 515.912 281.291 515.672 281.291 515.456V512.396C280.475 512.084 279.623 511.844 278.735 511.676C277.871 511.508 276.983 511.424 276.071 511.424C274.343 511.424 272.939 511.784 271.859 512.504C270.779 513.224 270.239 514.172 270.239 515.348C270.239 515.924 270.347 516.464 270.563 516.968C270.803 517.472 271.115 517.916 271.499 518.3C271.907 518.66 272.387 518.948 272.939 519.164C273.491 519.38 274.079 519.488 274.703 519.488ZM294.152 521L286.52 502.244H289.04L295.484 518.732L301.964 502.244H304.34L296.708 521H294.152ZM315.198 521.36C313.83 521.36 312.57 521.108 311.418 520.604C310.29 520.076 309.306 519.368 308.466 518.48C307.626 517.568 306.966 516.524 306.486 515.348C306.03 514.172 305.802 512.912 305.802 511.568C305.802 510.248 306.03 509.012 306.486 507.86C306.966 506.684 307.614 505.664 308.43 504.8C309.27 503.912 310.266 503.216 311.418 502.712C312.57 502.184 313.818 501.92 315.162 501.92C316.53 501.92 317.778 502.184 318.906 502.712C320.058 503.216 321.042 503.912 321.858 504.8C322.674 505.688 323.31 506.708 323.766 507.86C324.222 509.012 324.45 510.236 324.45 511.532C324.45 511.724 324.45 511.916 324.45 512.108C324.45 512.3 324.438 512.432 324.414 512.504H308.358C308.43 513.512 308.658 514.448 309.042 515.312C309.45 516.152 309.966 516.884 310.59 517.508C311.214 518.132 311.922 518.624 312.714 518.984C313.53 519.32 314.394 519.488 315.306 519.488C315.906 519.488 316.506 519.404 317.106 519.236C317.706 519.068 318.258 518.84 318.762 518.552C319.266 518.264 319.722 517.916 320.13 517.508C320.538 517.076 320.85 516.608 321.066 516.104L323.19 516.68C322.902 517.376 322.494 518.012 321.966 518.588C321.438 519.14 320.826 519.632 320.13 520.064C319.434 520.472 318.666 520.784 317.826 521C316.986 521.24 316.11 521.36 315.198 521.36ZM322.11 510.632C322.038 509.624 321.798 508.712 321.39 507.896C321.006 507.056 320.502 506.336 319.878 505.736C319.278 505.136 318.57 504.668 317.754 504.332C316.962 503.996 316.11 503.828 315.198 503.828C314.286 503.828 313.422 503.996 312.606 504.332C311.79 504.668 311.07 505.136 310.446 505.736C309.846 506.336 309.354 507.056 308.97 507.896C308.61 508.736 308.394 509.648 308.322 510.632H322.11ZM328.335 494.72H330.783V516.752C330.783 517.448 330.975 518 331.359 518.408C331.743 518.792 332.283 518.984 332.979 518.984C333.243 518.984 333.555 518.948 333.915 518.876C334.275 518.804 334.611 518.708 334.923 518.588L335.355 520.568C334.899 520.76 334.335 520.916 333.663 521.036C333.015 521.156 332.451 521.216 331.971 521.216C330.843 521.216 329.955 520.904 329.307 520.28C328.659 519.632 328.335 518.732 328.335 517.58V494.72ZM346.087 521V502.244H348.535V521H346.087ZM346.087 498.32V494.72H348.535V498.32H346.087ZM369.695 521H367.247V510.524C367.247 508.292 366.911 506.672 366.239 505.664C365.591 504.656 364.583 504.152 363.215 504.152C362.495 504.152 361.775 504.284 361.055 504.548C360.335 504.812 359.663 505.184 359.039 505.664C358.439 506.144 357.899 506.72 357.419 507.392C356.939 508.04 356.591 508.748 356.375 509.516V521H353.927V502.244H356.159V506.492C356.927 505.124 358.019 504.02 359.435 503.18C360.875 502.34 362.435 501.92 364.115 501.92C365.147 501.92 366.023 502.112 366.743 502.496C367.463 502.88 368.039 503.42 368.471 504.116C368.903 504.812 369.215 505.664 369.407 506.672C369.599 507.68 369.695 508.796 369.695 510.02V521ZM383.739 520.1C383.595 520.172 383.379 520.268 383.091 520.388C382.827 520.508 382.515 520.628 382.155 520.748C381.795 520.868 381.387 520.976 380.931 521.072C380.475 521.168 379.995 521.216 379.491 521.216C378.963 521.216 378.459 521.144 377.979 521C377.499 520.856 377.079 520.64 376.719 520.352C376.359 520.04 376.071 519.656 375.855 519.2C375.639 518.744 375.531 518.216 375.531 517.616V504.188H372.939V502.244H375.531V495.908H377.979V502.244H382.299V504.188H377.979V516.932C378.027 517.628 378.267 518.144 378.699 518.48C379.155 518.792 379.671 518.948 380.247 518.948C380.943 518.948 381.555 518.84 382.083 518.624C382.611 518.384 382.947 518.216 383.091 518.12L383.739 520.1ZM394.441 521.36C393.073 521.36 391.813 521.108 390.661 520.604C389.533 520.076 388.549 519.368 387.709 518.48C386.869 517.568 386.209 516.524 385.729 515.348C385.273 514.172 385.045 512.912 385.045 511.568C385.045 510.248 385.273 509.012 385.729 507.86C386.209 506.684 386.857 505.664 387.673 504.8C388.513 503.912 389.509 503.216 390.661 502.712C391.813 502.184 393.061 501.92 394.405 501.92C395.773 501.92 397.021 502.184 398.149 502.712C399.301 503.216 400.285 503.912 401.101 504.8C401.917 505.688 402.553 506.708 403.009 507.86C403.465 509.012 403.693 510.236 403.693 511.532C403.693 511.724 403.693 511.916 403.693 512.108C403.693 512.3 403.681 512.432 403.657 512.504H387.601C387.673 513.512 387.901 514.448 388.285 515.312C388.693 516.152 389.209 516.884 389.833 517.508C390.457 518.132 391.165 518.624 391.957 518.984C392.773 519.32 393.637 519.488 394.549 519.488C395.149 519.488 395.749 519.404 396.349 519.236C396.949 519.068 397.501 518.84 398.005 518.552C398.509 518.264 398.965 517.916 399.373 517.508C399.781 517.076 400.093 516.608 400.309 516.104L402.433 516.68C402.145 517.376 401.737 518.012 401.209 518.588C400.681 519.14 400.069 519.632 399.373 520.064C398.677 520.472 397.909 520.784 397.069 521C396.229 521.24 395.353 521.36 394.441 521.36ZM401.353 510.632C401.281 509.624 401.041 508.712 400.633 507.896C400.249 507.056 399.745 506.336 399.121 505.736C398.521 505.136 397.813 504.668 396.997 504.332C396.205 503.996 395.353 503.828 394.441 503.828C393.529 503.828 392.665 503.996 391.849 504.332C391.033 504.668 390.313 505.136 389.689 505.736C389.089 506.336 388.597 507.056 388.213 507.896C387.853 508.736 387.637 509.648 387.565 510.632H401.353ZM414.994 521.252C413.698 521.252 412.51 520.988 411.43 520.46C410.374 519.908 409.45 519.188 408.658 518.3C407.89 517.412 407.29 516.392 406.858 515.24C406.426 514.088 406.21 512.9 406.21 511.676C406.21 510.38 406.414 509.144 406.822 507.968C407.254 506.768 407.854 505.724 408.622 504.836C409.39 503.948 410.302 503.24 411.358 502.712C412.438 502.184 413.626 501.92 414.922 501.92C416.53 501.92 417.922 502.328 419.098 503.144C420.274 503.936 421.282 504.944 422.122 506.168V502.244H424.318V521.072C424.318 522.368 424.066 523.508 423.562 524.492C423.082 525.5 422.422 526.34 421.582 527.012C420.766 527.684 419.794 528.188 418.666 528.524C417.562 528.86 416.386 529.028 415.138 529.028C412.978 529.028 411.238 528.644 409.918 527.876C408.598 527.108 407.53 526.076 406.714 524.78L408.226 523.592C408.97 524.792 409.954 525.668 411.178 526.22C412.402 526.796 413.722 527.084 415.138 527.084C416.05 527.084 416.914 526.952 417.73 526.688C418.546 526.448 419.254 526.076 419.854 525.572C420.478 525.092 420.97 524.468 421.33 523.7C421.69 522.956 421.87 522.08 421.87 521.072V517.364C421.15 518.564 420.166 519.512 418.918 520.208C417.67 520.904 416.362 521.252 414.994 521.252ZM415.678 519.2C416.398 519.2 417.106 519.068 417.802 518.804C418.498 518.54 419.122 518.192 419.674 517.76C420.25 517.304 420.73 516.8 421.114 516.248C421.498 515.696 421.75 515.132 421.87 514.556V508.76C421.606 508.088 421.246 507.464 420.79 506.888C420.334 506.312 419.818 505.82 419.242 505.412C418.666 505.004 418.042 504.68 417.37 504.44C416.722 504.2 416.062 504.08 415.39 504.08C414.334 504.08 413.386 504.308 412.546 504.764C411.73 505.196 411.034 505.772 410.458 506.492C409.882 507.212 409.438 508.028 409.126 508.94C408.838 509.852 408.694 510.776 408.694 511.712C408.694 512.72 408.874 513.68 409.234 514.592C409.594 515.504 410.086 516.308 410.71 517.004C411.358 517.676 412.102 518.216 412.942 518.624C413.782 519.008 414.694 519.2 415.678 519.2ZM439.083 504.404C437.427 504.452 435.987 504.908 434.763 505.772C433.539 506.636 432.675 507.824 432.171 509.336V521H429.723V502.244H432.027V506.744C432.723 505.304 433.659 504.176 434.835 503.36C436.011 502.544 437.271 502.136 438.615 502.136C438.807 502.136 438.963 502.148 439.083 502.172V504.404ZM446.814 521.36C445.926 521.36 445.098 521.216 444.33 520.928C443.586 520.616 442.926 520.196 442.35 519.668C441.798 519.14 441.366 518.528 441.054 517.832C440.742 517.112 440.586 516.344 440.586 515.528C440.586 514.712 440.778 513.956 441.162 513.26C441.546 512.564 442.086 511.964 442.782 511.46C443.478 510.956 444.306 510.572 445.266 510.308C446.226 510.02 447.282 509.876 448.434 509.876C449.394 509.876 450.366 509.96 451.35 510.128C452.334 510.296 453.21 510.536 453.978 510.848V509.156C453.978 507.5 453.51 506.192 452.574 505.232C451.638 504.248 450.342 503.756 448.686 503.756C447.726 503.756 446.742 503.948 445.734 504.332C444.726 504.716 443.706 505.268 442.674 505.988L441.81 504.368C444.234 502.736 446.586 501.92 448.866 501.92C451.218 501.92 453.066 502.58 454.41 503.9C455.754 505.22 456.426 507.044 456.426 509.372V517.832C456.426 518.504 456.726 518.84 457.326 518.84V521C456.918 521.072 456.606 521.108 456.39 521.108C455.766 521.108 455.274 520.952 454.914 520.64C454.578 520.328 454.398 519.896 454.374 519.344L454.302 517.868C453.438 518.996 452.346 519.86 451.026 520.46C449.73 521.06 448.326 521.36 446.814 521.36ZM447.39 519.488C448.662 519.488 449.826 519.248 450.882 518.768C451.962 518.288 452.778 517.652 453.33 516.86C453.546 516.644 453.702 516.416 453.798 516.176C453.918 515.912 453.978 515.672 453.978 515.456V512.396C453.162 512.084 452.31 511.844 451.422 511.676C450.558 511.508 449.67 511.424 448.758 511.424C447.03 511.424 445.626 511.784 444.546 512.504C443.466 513.224 442.926 514.172 442.926 515.348C442.926 515.924 443.034 516.464 443.25 516.968C443.49 517.472 443.802 517.916 444.186 518.3C444.594 518.66 445.074 518.948 445.626 519.164C446.178 519.38 446.766 519.488 447.39 519.488ZM470.575 520.1C470.431 520.172 470.215 520.268 469.927 520.388C469.663 520.508 469.351 520.628 468.991 520.748C468.631 520.868 468.223 520.976 467.767 521.072C467.311 521.168 466.831 521.216 466.327 521.216C465.799 521.216 465.295 521.144 464.815 521C464.335 520.856 463.915 520.64 463.555 520.352C463.195 520.04 462.907 519.656 462.691 519.2C462.475 518.744 462.367 518.216 462.367 517.616V504.188H459.775V502.244H462.367V495.908H464.815V502.244H469.135V504.188H464.815V516.932C464.863 517.628 465.103 518.144 465.535 518.48C465.991 518.792 466.507 518.948 467.083 518.948C467.779 518.948 468.391 518.84 468.919 518.624C469.447 518.384 469.783 518.216 469.927 518.12L470.575 520.1ZM473.634 521V502.244H476.082V521H473.634ZM473.634 498.32V494.72H476.082V498.32H473.634ZM489.465 521.36C488.097 521.36 486.849 521.108 485.721 520.604C484.593 520.076 483.609 519.368 482.769 518.48C481.953 517.592 481.317 516.56 480.861 515.384C480.405 514.208 480.177 512.972 480.177 511.676C480.177 510.356 480.405 509.108 480.861 507.932C481.341 506.756 481.989 505.724 482.805 504.836C483.645 503.948 484.629 503.24 485.757 502.712C486.885 502.184 488.121 501.92 489.465 501.92C490.809 501.92 492.045 502.184 493.173 502.712C494.325 503.24 495.309 503.948 496.125 504.836C496.965 505.724 497.613 506.756 498.069 507.932C498.549 509.108 498.789 510.356 498.789 511.676C498.789 512.972 498.561 514.208 498.105 515.384C497.649 516.56 497.001 517.592 496.161 518.48C495.345 519.368 494.361 520.076 493.209 520.604C492.081 521.108 490.833 521.36 489.465 521.36ZM482.661 511.712C482.661 512.768 482.841 513.752 483.201 514.664C483.561 515.552 484.041 516.344 484.641 517.04C485.265 517.712 485.985 518.24 486.801 518.624C487.641 519.008 488.529 519.2 489.465 519.2C490.401 519.2 491.277 519.008 492.093 518.624C492.933 518.216 493.665 517.676 494.289 517.004C494.913 516.308 495.405 515.504 495.765 514.592C496.125 513.68 496.305 512.696 496.305 511.64C496.305 510.608 496.125 509.636 495.765 508.724C495.405 507.788 494.913 506.984 494.289 506.312C493.665 505.616 492.933 505.076 492.093 504.692C491.277 504.284 490.401 504.08 489.465 504.08C488.529 504.08 487.653 504.284 486.837 504.692C486.021 505.076 485.301 505.616 484.677 506.312C484.053 507.008 483.561 507.824 483.201 508.76C482.841 509.672 482.661 510.656 482.661 511.712ZM518.652 521H516.204V510.524C516.204 508.292 515.868 506.672 515.196 505.664C514.548 504.656 513.54 504.152 512.172 504.152C511.452 504.152 510.732 504.284 510.012 504.548C509.292 504.812 508.62 505.184 507.996 505.664C507.396 506.144 506.856 506.72 506.376 507.392C505.896 508.04 505.548 508.748 505.332 509.516V521H502.884V502.244H505.116V506.492C505.884 505.124 506.976 504.02 508.392 503.18C509.832 502.34 511.392 501.92 513.072 501.92C514.104 501.92 514.98 502.112 515.7 502.496C516.42 502.88 516.996 503.42 517.428 504.116C517.86 504.812 518.172 505.664 518.364 506.672C518.556 507.68 518.652 508.796 518.652 510.02V521ZM533.948 521V504.188H531.356V502.244H533.948V501.74C533.948 499.436 534.44 497.636 535.424 496.34C536.408 495.02 537.752 494.36 539.456 494.36C540.2 494.36 540.92 494.468 541.616 494.684C542.312 494.9 542.912 495.188 543.416 495.548L542.66 497.312C542.324 497.048 541.904 496.844 541.4 496.7C540.92 496.556 540.428 496.484 539.924 496.484C538.772 496.484 537.896 496.928 537.296 497.816C536.696 498.704 536.396 499.988 536.396 501.668V502.244H541.58V504.188H536.396V521H533.948ZM551.973 521.36C550.605 521.36 549.357 521.108 548.229 520.604C547.101 520.076 546.117 519.368 545.277 518.48C544.461 517.592 543.825 516.56 543.369 515.384C542.913 514.208 542.685 512.972 542.685 511.676C542.685 510.356 542.913 509.108 543.369 507.932C543.849 506.756 544.497 505.724 545.313 504.836C546.153 503.948 547.137 503.24 548.265 502.712C549.393 502.184 550.629 501.92 551.973 501.92C553.317 501.92 554.553 502.184 555.681 502.712C556.833 503.24 557.817 503.948 558.633 504.836C559.473 505.724 560.121 506.756 560.577 507.932C561.057 509.108 561.297 510.356 561.297 511.676C561.297 512.972 561.069 514.208 560.613 515.384C560.157 516.56 559.509 517.592 558.669 518.48C557.853 519.368 556.869 520.076 555.717 520.604C554.589 521.108 553.341 521.36 551.973 521.36ZM545.169 511.712C545.169 512.768 545.349 513.752 545.709 514.664C546.069 515.552 546.549 516.344 547.149 517.04C547.773 517.712 548.493 518.24 549.309 518.624C550.149 519.008 551.037 519.2 551.973 519.2C552.909 519.2 553.785 519.008 554.601 518.624C555.441 518.216 556.173 517.676 556.797 517.004C557.421 516.308 557.913 515.504 558.273 514.592C558.633 513.68 558.813 512.696 558.813 511.64C558.813 510.608 558.633 509.636 558.273 508.724C557.913 507.788 557.421 506.984 556.797 506.312C556.173 505.616 555.441 505.076 554.601 504.692C553.785 504.284 552.909 504.08 551.973 504.08C551.037 504.08 550.161 504.284 549.345 504.692C548.529 505.076 547.809 505.616 547.185 506.312C546.561 507.008 546.069 507.824 545.709 508.76C545.349 509.672 545.169 510.656 545.169 511.712ZM574.751 504.404C573.095 504.452 571.655 504.908 570.431 505.772C569.207 506.636 568.343 507.824 567.839 509.336V521H565.391V502.244H567.695V506.744C568.391 505.304 569.327 504.176 570.503 503.36C571.679 502.544 572.939 502.136 574.283 502.136C574.475 502.136 574.631 502.148 574.751 502.172V504.404ZM584.725 519.344L597.397 504.08H585.013V502.244H600.061V503.9L587.425 519.164H600.025V521H584.725V519.344ZM610.256 521.36C608.792 521.36 607.364 521.12 605.972 520.64C604.58 520.16 603.38 519.464 602.372 518.552L603.488 516.896C604.544 517.76 605.612 518.408 606.692 518.84C607.796 519.272 608.972 519.488 610.22 519.488C611.732 519.488 612.932 519.188 613.82 518.588C614.732 517.964 615.188 517.088 615.188 515.96C615.188 515.432 615.068 515 614.828 514.664C614.588 514.304 614.228 513.992 613.748 513.728C613.292 513.464 612.704 513.236 611.984 513.044C611.288 512.828 610.472 512.612 609.536 512.396C608.456 512.132 607.52 511.868 606.728 511.604C605.936 511.34 605.276 511.04 604.748 510.704C604.244 510.368 603.86 509.96 603.596 509.48C603.356 508.976 603.236 508.352 603.236 507.608C603.236 506.672 603.416 505.844 603.776 505.124C604.16 504.404 604.664 503.816 605.288 503.36C605.936 502.88 606.68 502.52 607.52 502.28C608.384 502.04 609.296 501.92 610.256 501.92C611.696 501.92 613.004 502.16 614.18 502.64C615.356 503.096 616.304 503.708 617.024 504.476L615.836 505.916C615.14 505.196 614.288 504.656 613.28 504.296C612.296 503.936 611.264 503.756 610.184 503.756C609.536 503.756 608.936 503.828 608.384 503.972C607.832 504.092 607.34 504.296 606.908 504.584C606.5 504.872 606.176 505.244 605.936 505.7C605.696 506.132 605.576 506.648 605.576 507.248C605.576 507.752 605.66 508.16 605.828 508.472C605.996 508.784 606.272 509.06 606.656 509.3C607.04 509.516 607.52 509.72 608.096 509.912C608.696 510.08 609.416 510.26 610.256 510.452C611.456 510.74 612.512 511.028 613.424 511.316C614.336 511.604 615.092 511.94 615.692 512.324C616.316 512.708 616.784 513.176 617.096 513.728C617.408 514.28 617.564 514.952 617.564 515.744C617.564 517.472 616.904 518.84 615.584 519.848C614.264 520.856 612.488 521.36 610.256 521.36ZM637.339 521H634.891V510.524C634.891 508.388 634.519 506.792 633.775 505.736C633.055 504.68 631.987 504.152 630.571 504.152C629.875 504.152 629.179 504.296 628.483 504.584C627.811 504.848 627.175 505.22 626.575 505.7C625.975 506.18 625.447 506.744 624.991 507.392C624.559 508.04 624.235 508.748 624.019 509.516V521H621.571V494.72H624.019V506.492C624.763 505.076 625.795 503.96 627.115 503.144C628.435 502.328 629.863 501.92 631.399 501.92C632.479 501.92 633.391 502.124 634.135 502.532C634.879 502.916 635.491 503.468 635.971 504.188C636.451 504.884 636.799 505.736 637.015 506.744C637.231 507.728 637.339 508.82 637.339 510.02V521Z" fill="#4A5568"/>
<rect x="190" y="53" width="298" height="298" rx="12" fill="#1A202C"/>
<path d="M219.11 99.8584H231.478L230.985 103.277H214.116V100.202L226.441 84.0533H215.102V80.6128H231.349V83.7093L219.11 99.8584Z" fill="#718096"/>
<path d="M247.645 100.525C249.288 100.525 250.581 100.224 251.525 99.6218C252.482 99.0197 252.961 98.2026 252.961 97.1704C252.961 96.511 252.832 95.9519 252.575 95.4932C252.332 95.0201 251.817 94.59 251.032 94.203C250.26 93.8016 249.088 93.4002 247.516 92.9988C245.973 92.6117 244.63 92.1601 243.486 91.644C242.357 91.128 241.479 90.4542 240.85 89.6227C240.235 88.7912 239.928 87.7161 239.928 86.3972C239.928 84.4762 240.728 82.9423 242.329 81.7954C243.929 80.6486 246.051 80.0752 248.695 80.0752C250.553 80.0752 252.168 80.326 253.539 80.8278C254.911 81.3152 256.083 81.9173 257.055 82.6341L255.297 85.322C254.425 84.7486 253.468 84.2755 252.425 83.9028C251.396 83.5157 250.181 83.3222 248.781 83.3222C247.109 83.3222 245.916 83.5802 245.201 84.0963C244.501 84.5981 244.151 85.2647 244.151 86.0961C244.151 86.7269 244.322 87.2502 244.665 87.6659C245.023 88.0673 245.63 88.44 246.487 88.7841C247.345 89.1138 248.531 89.4865 250.045 89.9023C251.517 90.3037 252.803 90.7767 253.904 91.3215C255.004 91.8662 255.854 92.583 256.455 93.4718C257.069 94.3463 257.376 95.5003 257.376 96.9339C257.376 98.5538 256.912 99.8727 255.983 100.891C255.054 101.894 253.847 102.632 252.36 103.105C250.889 103.578 249.317 103.815 247.645 103.815C245.587 103.815 243.815 103.514 242.329 102.912C240.857 102.31 239.621 101.571 238.621 100.697L240.893 98.0736C241.764 98.8047 242.772 99.3996 243.915 99.8584C245.073 100.303 246.316 100.525 247.645 100.525Z" fill="#718096"/>
<path d="M269.556 71.0867V83.5587C270.456 82.4119 271.535 81.5446 272.793 80.9568C274.065 80.369 275.358 80.0752 276.673 80.0752C278.845 80.0752 280.445 80.6701 281.474 81.86C282.503 83.0355 283.017 84.6769 283.017 86.7843V103.277H278.902V87.1498C278.902 85.7879 278.609 84.8059 278.023 84.2038C277.451 83.5874 276.537 83.2792 275.279 83.2792C274.079 83.2792 272.971 83.6591 271.957 84.4189C270.957 85.1787 270.156 86.003 269.556 86.8918V103.277H265.441V71.5383L269.556 71.0867Z" fill="#718096"/>
<path d="M291.672 225.473C291.672 226.387 291.816 227.054 292.103 227.475C292.39 227.881 292.842 228.186 293.459 228.389L292.491 231.261C291.457 231.131 290.553 230.819 289.778 230.326C289.017 229.832 288.457 229.078 288.098 228.062C287.28 229.136 286.247 229.941 284.998 230.478C283.749 231.015 282.393 231.283 280.928 231.283C278.646 231.283 276.845 230.63 275.524 229.325C274.204 228.019 273.543 226.3 273.543 224.167C273.543 221.787 274.462 219.959 276.299 218.682C278.151 217.391 280.806 216.746 284.266 216.746H287.56V215.005C287.56 213.423 287.094 212.299 286.16 211.631C285.242 210.964 283.957 210.63 282.306 210.63C281.546 210.63 280.649 210.724 279.615 210.913C278.596 211.102 277.505 211.399 276.342 211.805L275.287 208.759C276.68 208.222 278.022 207.837 279.314 207.605C280.606 207.373 281.811 207.257 282.931 207.257C285.845 207.257 288.027 207.932 289.476 209.281C290.94 210.63 291.672 212.466 291.672 214.787V225.473ZM282.091 228.149C283.139 228.149 284.151 227.874 285.127 227.322C286.117 226.771 286.928 226.002 287.56 225.016V219.466H284.546C282.149 219.466 280.448 219.879 279.443 220.706C278.438 221.519 277.936 222.636 277.936 224.058C277.936 226.786 279.321 228.149 282.091 228.149Z" fill="#68D391"/>
<path d="M300.979 230.739V227.649H304.423V210.891H300.979V207.801H307.589L308.342 213.176C309.203 211.276 310.258 209.818 311.507 208.802C312.77 207.772 314.407 207.257 316.416 207.257C317.076 207.257 317.658 207.308 318.16 207.409C318.677 207.511 319.201 207.641 319.732 207.801L319.086 215.853H315.899V211.065H315.878C312.476 211.065 310.036 213.525 308.557 218.443V227.649H313.165V230.739H300.979Z" fill="#68D391"/>
<path d="M345.014 229.564C344.21 230.086 343.241 230.5 342.107 230.804C340.988 231.124 339.854 231.283 338.705 231.283C336.179 231.283 334.241 230.616 332.892 229.281C331.557 227.946 330.89 226.212 330.89 224.08V210.935H325.744V207.801H330.89V202.621L335.024 202.121V207.801H342.775L342.301 210.935H335.024V224.036C335.024 225.298 335.339 226.249 335.971 226.887C336.617 227.526 337.686 227.845 339.179 227.845C340.012 227.845 340.78 227.75 341.483 227.562C342.201 227.359 342.861 227.09 343.464 226.757L345.014 229.564Z" fill="#68D391"/>
<path d="M361.21 196.832C362.071 196.832 362.76 197.101 363.277 197.638C363.808 198.174 364.074 198.827 364.074 199.596C364.074 200.394 363.808 201.069 363.277 201.62C362.76 202.157 362.071 202.425 361.21 202.425C360.363 202.425 359.674 202.157 359.143 201.62C358.626 201.069 358.368 200.394 358.368 199.596C358.368 198.827 358.626 198.174 359.143 197.638C359.674 197.101 360.363 196.832 361.21 196.832ZM364.289 207.801V227.562H370.598V230.739H353.244V227.562H360.155V210.978H353.459V207.801H364.289Z" fill="#68D391"/>
<path d="M386.169 227.954C387.82 227.954 389.119 227.649 390.066 227.039C391.028 226.43 391.509 225.603 391.509 224.558C391.509 223.891 391.38 223.325 391.121 222.861C390.877 222.382 390.36 221.947 389.571 221.555C388.796 221.149 387.619 220.743 386.04 220.336C384.49 219.945 383.14 219.488 381.992 218.965C380.858 218.443 379.975 217.761 379.344 216.92C378.727 216.078 378.418 214.99 378.418 213.655C378.418 211.711 379.222 210.159 380.829 208.998C382.437 207.837 384.569 207.257 387.224 207.257C389.09 207.257 390.712 207.511 392.09 208.019C393.468 208.512 394.645 209.121 395.621 209.847L393.856 212.567C392.98 211.987 392.018 211.508 390.971 211.131C389.937 210.739 388.717 210.543 387.31 210.543C385.631 210.543 384.432 210.804 383.715 211.327C383.011 211.834 382.66 212.509 382.66 213.351C382.66 213.989 382.832 214.518 383.176 214.939C383.535 215.345 384.145 215.723 385.006 216.071C385.868 216.405 387.059 216.782 388.581 217.203C390.059 217.609 391.351 218.088 392.456 218.639C393.561 219.19 394.415 219.916 395.018 220.815C395.636 221.7 395.944 222.868 395.944 224.319C395.944 225.959 395.478 227.293 394.545 228.323C393.612 229.339 392.399 230.086 390.906 230.565C389.427 231.044 387.849 231.283 386.169 231.283C384.102 231.283 382.322 230.979 380.829 230.369C379.351 229.76 378.109 229.013 377.105 228.128L379.387 225.473C380.262 226.212 381.274 226.815 382.423 227.279C383.585 227.729 384.834 227.954 386.169 227.954Z" fill="#68D391"/>
<path d="M420.774 225.473C420.774 226.387 420.918 227.054 421.205 227.475C421.492 227.881 421.944 228.186 422.561 228.389L421.592 231.261C420.559 231.131 419.654 230.819 418.879 230.326C418.119 229.832 417.559 229.078 417.2 228.062C416.382 229.136 415.348 229.941 414.099 230.478C412.851 231.015 411.494 231.283 410.03 231.283C407.748 231.283 405.946 230.63 404.626 229.325C403.305 228.019 402.645 226.3 402.645 224.167C402.645 221.787 403.564 219.959 405.401 218.682C407.253 217.391 409.908 216.746 413.367 216.746H416.662V215.005C416.662 213.423 416.195 212.299 415.262 211.631C414.344 210.964 413.059 210.63 411.408 210.63C410.647 210.63 409.75 210.724 408.717 210.913C407.698 211.102 406.607 211.399 405.444 211.805L404.389 208.759C405.781 208.222 407.123 207.837 408.415 207.605C409.707 207.373 410.913 207.257 412.033 207.257C414.946 207.257 417.128 207.932 418.578 209.281C420.042 210.63 420.774 212.466 420.774 214.787V225.473ZM411.193 228.149C412.241 228.149 413.253 227.874 414.229 227.322C415.219 226.771 416.03 226.002 416.662 225.016V219.466H413.647C411.25 219.466 409.549 219.879 408.544 220.706C407.54 221.519 407.037 222.636 407.037 224.058C407.037 226.786 408.422 228.149 411.193 228.149Z" fill="#68D391"/>
<path d="M429.865 230.739V207.801H433.417L433.719 210.891C434.652 209.716 435.786 208.817 437.121 208.193C438.47 207.569 439.812 207.257 441.147 207.257C443.329 207.257 444.937 207.859 445.97 209.063C447.004 210.253 447.52 211.914 447.52 214.047V230.739H443.386V216.615C443.386 215.164 443.3 213.989 443.128 213.089C442.97 212.19 442.633 211.537 442.116 211.131C441.599 210.71 440.817 210.5 439.769 210.5C438.535 210.5 437.415 210.884 436.41 211.653C435.405 212.422 434.602 213.249 433.999 214.134V230.739H429.865Z" fill="#68D391"/>
<path d="M239.246 194.249V200.682C240.996 200.854 242.543 201.261 243.888 201.905C245.247 202.548 246.389 203.284 247.315 204.114L244.907 206.58C243.244 205.079 241.357 204.199 239.246 203.942V213.357C240.779 213.843 242.181 214.465 243.454 215.223C244.741 215.98 245.768 216.946 246.534 218.118C247.315 219.276 247.705 220.72 247.705 222.45C247.705 223.851 247.387 225.159 246.751 226.375C246.115 227.59 245.167 228.612 243.909 229.441C242.666 230.271 241.111 230.807 239.246 231.05V237.312H236.231V231.179C234.163 231.036 232.356 230.564 230.809 229.763C229.276 228.962 228.018 228.083 227.035 227.125L229.399 224.53C230.31 225.431 231.322 226.174 232.435 226.761C233.563 227.347 234.829 227.697 236.231 227.812V216.424C233.6 215.552 231.597 214.458 230.223 213.142C228.849 211.813 228.163 210.154 228.163 208.167C228.163 206.952 228.466 205.808 229.074 204.736C229.681 203.663 230.577 202.763 231.763 202.033C232.963 201.304 234.453 200.854 236.231 200.682V194.249H239.246ZM236.231 204.028C235.089 204.214 234.163 204.643 233.455 205.315C232.761 205.972 232.414 206.866 232.414 207.995C232.414 208.939 232.667 209.747 233.173 210.419C233.693 211.077 234.713 211.72 236.231 212.349V204.028ZM239.246 217.475V227.64C241.994 227.082 243.367 225.41 243.367 222.622C243.367 221.492 243.071 220.52 242.478 219.705C241.885 218.876 240.808 218.132 239.246 217.475Z" fill="#805AD5"/>
<circle cx="458.2" cy="87.568" r="7.152" fill="#4A5568"/>
<circle cx="434.36" cy="87.568" r="7.152" fill="#4A5568"/>
<circle cx="410.52" cy="87.568" r="7.152" fill="#4A5568"/>
</svg>
